<svg id="Capa_2" data-name="Capa 2" xmlns="http://www.w3.org/2000/svg" width="116.01" height="111.65" viewBox="0 0 116.01 111.65">
  <g id="Capa_2-2" data-name="Capa 2">
    <path id="Trazado_14" data-name="Trazado 14" d="M115.51,59.5v44.33l-12.78,7.32V66.94Z" fill="#f9b233"/>
    <path id="Trazado_15" data-name="Trazado 15" d="M115.51,59.5l-12.78,7.44L89.9,59.53l12.78-7.38Z" fill="#f9b233"/>
    <path id="Trazado_16" data-name="Trazado 16" d="M102.73,66.94v44.21l-12.78-7.38V74.32L77.18,81.64,64.35,59.53l.05,29.48L51.62,81.69V37.37L64.4,44.75,77.13,66.91,89.9,59.53Z" fill="#1d1d1b"/>
    <path id="Trazado_17" data-name="Trazado 17" d="M77.18,37.37,89.9,59.53,77.13,66.91,64.4,44.75Z" fill="#f9b233"/>
    <path id="Trazado_18" data-name="Trazado 18" d="M64.35,59.53,77.18,81.64,64.4,89.01Z" fill="#f9b233"/>
    <path id="Trazado_19" data-name="Trazado 19" d="M77.18,37.37,64.4,44.75,51.62,37.37l12.73-7.35Z" fill="#f9b233"/>
    <path id="Trazado_20" data-name="Trazado 20" d="M51.57,22.64l.05,14.73L38.84,44.8l-.05-14.78Z" fill="#f9b233"/>
    <path id="Trazado_21" data-name="Trazado 21" d="M51.57,52.15V66.91L38.79,74.29l.05-14.73Z" fill="#f9b233"/>
    <path id="Trazado_22" data-name="Trazado 22" d="M51.57,22.64,38.79,30.02.5,7.91,13.23.5Z" fill="#f9b233"/>
    <path id="Trazado_23" data-name="Trazado 23" d="M51.57,52.15,38.84,59.56,13.28,44.8l12.73-7.4,12.83,7.4Z" fill="#f9b233"/>
    <path id="Trazado_24" data-name="Trazado 24" d="M38.79,30.02l.05,14.78L26.01,37.4,13.28,30.05V44.8L38.84,59.56l-.05,14.73L.5,52.12V7.91Z" fill="#1d1d1b"/>
    <path id="Trazado_25" data-name="Trazado 25" d="M13.28,30.05,26.01,37.4,13.28,44.8Z" fill="#f9b233"/>
    <path id="Trazado_26" data-name="Trazado 26" d="M38.84,44.8,26.01,37.4,13.28,30.05V44.8L38.84,59.56l-.05,14.73L.5,52.12V7.91L13.23.5,51.57,22.64" fill="none" stroke="#1d1d1b" stroke-linejoin="round" stroke-width="1"/>
    <path id="Trazado_27" data-name="Trazado 27" d="M51.62,37.37l-.05-14.73L38.79,30.02l.05,14.78Z" fill="none" stroke="#1d1d1b" stroke-linejoin="round" stroke-width="1"/>
    <line id="Línea_2" data-name="Línea 2" x2="38.29" y2="22.11" transform="translate(0.5 7.91)" fill="none" stroke="#1d1d1b" stroke-linejoin="round" stroke-width="1"/>
    <path id="Trazado_28" data-name="Trazado 28" d="M38.79,74.29l12.78-7.38V52.15L38.84,59.56" fill="none" stroke="#1d1d1b" stroke-linejoin="round" stroke-width="1"/>
    <line id="Línea_3" data-name="Línea 3" x2="12.73" y2="7.35" transform="translate(38.84 44.8)" fill="none" stroke="#1d1d1b" stroke-linejoin="round" stroke-width="1"/>
    <line id="Línea_4" data-name="Línea 4" y1="7.4" x2="12.73" transform="translate(13.28 37.4)" fill="none" stroke="#1d1d1b" stroke-linejoin="round" stroke-width="1"/>
    <path id="Trazado_29" data-name="Trazado 29" d="M64.4,44.75l12.78-7.38L64.35,30.02,51.62,37.37Z" fill="none" stroke="#1d1d1b" stroke-linejoin="round" stroke-width="1"/>
    <path id="Trazado_30" data-name="Trazado 30" d="M64.4,44.75,77.13,66.91,89.9,59.53,77.18,37.37" fill="none" stroke="#1d1d1b" stroke-linejoin="round" stroke-width="1"/>
    <path id="Trazado_31" data-name="Trazado 31" d="M102.73,111.15l12.78-7.32V59.5" fill="none" stroke="#1d1d1b" stroke-linejoin="round" stroke-width="1"/>
    <path id="Trazado_32" data-name="Trazado 32" d="M51.62,37.37V81.69L64.4,89.01l-.05-29.48L77.18,81.64l12.77-7.32v29.45l12.78,7.38V66.94l12.78-7.44-12.83-7.35L89.9,59.53l12.83,7.41" fill="none" stroke="#1d1d1b" stroke-linejoin="round" stroke-width="1"/>
    <line id="Línea_5" data-name="Línea 5" y1="7.37" x2="12.78" transform="translate(64.4 81.64)" fill="none" stroke="#1d1d1b" stroke-linejoin="round" stroke-width="1"/>
  </g>
</svg>